<?xml version="1.0" encoding="utf-8"?>
<!-- Generator: Adobe Illustrator 17.0.0, SVG Export Plug-In . SVG Version: 6.00 Build 0)  -->
<!DOCTYPE svg PUBLIC "-//W3C//DTD SVG 1.1//EN" "http://www.w3.org/Graphics/SVG/1.1/DTD/svg11.dtd">
<svg version="1.1" id="Layer_1" xmlns="http://www.w3.org/2000/svg" xmlns:xlink="http://www.w3.org/1999/xlink" x="0px" y="0px"
	 width="75.667px" height="75.667px" viewBox="0 0 75.667 75.667" enable-background="new 0 0 75.667 75.667" xml:space="preserve">
<g>
	<path fill="#427DC2" d="M35.052,30.128c3.257,0,6.514-0.002,9.771,0.003c0.305,0,0.709-0.137,0.735,0.39
		c0.021,0.437-0.044,0.825-0.594,0.896c-0.328,0.042-0.532,0.239-0.581,0.566c-0.057,0.378,0.032,0.693,0.497,0.651
		c0.5-0.045,0.694,0.247,0.708,0.647c0.014,0.399-0.21,0.636-0.667,0.613c-0.309-0.015-0.5,0.162-0.522,0.502
		c-0.029,0.438,0.076,0.787,0.561,0.874c0.472,0.085,0.603,0.371,0.538,0.802c-0.048,0.319-0.259,0.511-0.555,0.485
		c-0.397-0.035-0.567,0.145-0.552,0.488c0.015,0.34-0.095,0.79,0.472,0.842c0.274,0.025,0.479,0.176,0.593,0.421
		c0.186,0.397-0.043,0.821-0.491,0.837c-0.403,0.015-0.622,0.138-0.644,0.565c-0.024,0.45,0.207,0.626,0.617,0.678
		c0.264,0.033,0.559,0.038,0.578,0.434c0.023,0.493-0.161,0.673-0.681,0.668c-5.733-0.047-11.466-0.071-17.199-0.101
		c-0.176-0.001-0.351-0.002-0.527,0.001c-1.51,0.02-2.46-0.924-2.461-2.454c-0.002-2.75,0.012-5.5-0.013-8.25
		c-0.004-0.479,0.148-0.569,0.589-0.567C28.499,30.136,31.775,30.128,35.052,30.128z"/>
	<path fill="#427DC2" d="M34.895,26.499c-3.258-0.009-6.517,0.037-9.775-0.111c-0.518-0.024-0.746-0.103-0.725-0.713
		c0.048-1.371-0.587-2.47-1.568-3.394c-0.227-0.214-0.479-0.216-0.756-0.217c-2.068-0.005-4.137-0.006-6.205-0.03
		c-1.039-0.012-1.408-0.439-1.406-1.542c0.002-0.94,0.585-1.602,1.49-1.594c2.439,0.02,4.877,0.052,7.315,0.123
		c0.883,0.026,1.657,0.386,2.284,1.043c0.609,0.637,1.166,1.316,1.639,2.056c0.22,0.344,0.472,0.439,0.861,0.438
		c5.503-0.011,11.006-0.01,16.51,0c0.226,0,0.586-0.164,0.659,0.163c0.087,0.389,0.097,0.816-0.012,1.214
		c-0.041,0.149-0.242,0.073-0.368,0.11c-0.32,0.094-0.651,0.164-0.669,0.606c-0.018,0.447,0.263,0.629,0.624,0.723
		c0.279,0.072,0.459,0.122,0.476,0.505c0.024,0.536-0.155,0.636-0.656,0.632C41.374,26.487,38.134,26.498,34.895,26.499z"/>
	<path fill="#FB7702" d="M57.784,32.475c-0.074-0.451-0.098-0.888-0.011-1.356c0.108-0.578-0.301-0.799-0.843-0.52
		c-0.268,0.138-0.518,0.383-0.852,0.135c-0.323-0.239-0.188-0.56-0.163-0.861c0.024-0.297,0.227-0.633-0.125-0.854
		c-0.325-0.203-0.644-0.055-0.931,0.121c-0.247,0.151-0.481,0.278-0.741,0.044c-0.252-0.226-0.347-0.462-0.22-0.825
		c0.117-0.335,0.168-0.703-0.252-0.974c-0.384-0.248-0.705-0.287-1.056,0.01c-0.332,0.28-0.467-0.085-0.652-0.22
		c-0.233-0.17-0.281-0.374-0.061-0.638c0.872-1.05,1.704-2.133,2.591-3.17c0.348-0.406,0.3-0.62-0.113-0.927
		c-0.514-0.382-0.963-0.852-1.448-1.276c-0.351-0.307-0.608-0.314-0.955,0.108c-0.829,1.008-1.742,1.947-2.614,2.92
		c-0.198,0.221-0.432,0.261-0.688,0.182c-0.284-0.088-0.342-0.31-0.348-0.597c-0.018-0.96-0.219-1.077-1.178-0.85
		c-0.446,0.106-0.667-0.303-0.924-0.568c-0.257-0.265,0.027-0.418,0.172-0.572c1.232-1.305,2.463-2.61,3.709-3.901
		c0.779-0.807,1.512-0.851,2.374-0.164c3.662,2.918,7.139,6.049,10.615,9.182c0.946,0.853,1.074,1.958,0.363,3
		c-0.871,1.276-2.007,2.333-2.993,3.516c-0.201,0.242-0.52,0.291-0.809,0.176c-0.303-0.121-0.149-0.395-0.138-0.616
		c0.014-0.266,0.119-0.563-0.152-0.759c-0.283-0.205-0.536-0.021-0.737,0.148c-0.273,0.23-0.572-0.059-0.832,0.095L57.784,32.475z"
		/>
	<path fill="#FB7702" d="M57.772,32.464c0.347,0.307,0.695,0.614,1.134,1.002c-0.787,0.057-1.473,0.117-2.159,0.154
		c-1.012,0.055-2.025,0.106-3.038,0.133c-0.454,0.012-0.552,0.158-0.348,0.567c0.859,1.725,1.69,3.464,2.569,5.179
		c0.21,0.41,0.125,0.606-0.226,0.828c-0.774,0.489-1.542,0.99-2.291,1.516c-0.304,0.214-0.427,0.152-0.603-0.152
		c-1.016-1.752-2.067-3.485-3.076-5.241c-0.227-0.395-0.364-0.386-0.663-0.084c-1.039,1.046-2.102,2.07-3.274,3.218
		c-0.066-5.786-0.13-11.423-0.194-17.064c0.226-0.022,0.306,0.138,0.417,0.23c3.844,3.183,7.686,6.371,11.528,9.556
		c0.074,0.061,0.156,0.113,0.235,0.169C57.784,32.475,57.772,32.464,57.772,32.464z"/>
	<path fill="#427DC2" d="M34.604,48.648c0-1.618-0.003-3.236,0.005-4.854c0.001-0.18-0.118-0.447,0.098-0.528
		c0.341-0.128,0.714-0.222,1.075-0.226c0.209-0.002,0.117,0.288,0.119,0.444c0.042,2.788,0.076,5.576,0.113,8.364
		c0.007,0.546-0.012,1.094,0.035,1.637c0.062,0.721,0.363,0.908,1.055,0.771c0.158-0.031,0.448-0.332,0.496,0.044
		c0.038,0.299,0.256,0.719-0.199,0.931c-1.213,0.565-2.543,0.479-2.647-1.378c-0.08-1.439-0.043-2.885-0.056-4.328
		c-0.003-0.292,0-0.585,0-0.877C34.667,48.648,34.636,48.648,34.604,48.648z"/>
	<path fill="#427DC2" d="M42.431,52.352c0-0.624-0.034-1.25,0.011-1.871c0.036-0.502-0.168-0.618-0.605-0.531
		c-0.114,0.023-0.233,0.017-0.349,0.03c-0.08,0.008-0.159,0.014-0.191-0.078c-0.034-0.1-0.019-0.192,0.076-0.255
		c0.032-0.022,0.065-0.05,0.101-0.056c1.093-0.181,0.99-0.989,0.923-1.77c-0.065-0.754,0.339-1.288,1.07-1.371
		c0.308-0.035,0.274,0.2,0.265,0.388c-0.03,0.622-0.055,1.245-0.106,1.865c-0.03,0.369,0.067,0.547,0.476,0.5
		c0.366-0.042,0.739-0.025,1.108-0.052c0.201-0.015,0.415-0.084,0.392,0.238c-0.016,0.222,0.035,0.502-0.327,0.504
		c-0.409,0.002-0.819,0.013-1.228-0.001c-0.28-0.009-0.429,0.053-0.424,0.382c0.017,1.091-0.017,2.184,0.017,3.275
		c0.034,1.082,0.504,1.366,1.512,0.961c0.117-0.047,0.209-0.104,0.298,0.023c0.063,0.09,0.037,0.171-0.012,0.267
		c-0.333,0.65-1.105,0.984-1.896,0.811c-0.806-0.176-1.122-0.578-1.132-1.446c-0.004-0.312-0.001-0.624-0.001-0.936
		c0-0.292,0-0.584,0-0.876C42.416,52.352,42.424,52.352,42.431,52.352z"/>
	<path fill="#FB7703" d="M59.118,51.474c1.271-1.012,1.915-0.989,2.696,0.099c0.184-0.158,0.361-0.323,0.552-0.47
		c0.954-0.732,2.154-0.316,2.285,0.867c0.115,1.041,0.043,2.102,0.053,3.154c0.003,0.278-0.183,0.296-0.396,0.299
		c-0.251,0.004-0.35-0.112-0.349-0.354c0.004-0.682,0.001-1.365,0.001-2.047c0-0.117,0.002-0.234,0-0.351
		c-0.019-0.815-0.312-1.235-0.856-1.231c-0.573,0.005-1.17,0.658-1.173,1.289c-0.003,0.76-0.003,1.521,0,2.281
		c0.001,0.241-0.036,0.413-0.345,0.416c-0.298,0.002-0.421-0.1-0.416-0.408c0.013-0.799,0.009-1.599,0.002-2.398
		c-0.007-0.764-0.307-1.18-0.837-1.18c-0.567,0-1.159,0.619-1.162,1.224c-0.004,0.76-0.006,1.521,0.001,2.281
		c0.003,0.285-0.026,0.485-0.4,0.485c-0.383-0.001-0.391-0.218-0.39-0.494c0.004-1.17-0.003-2.34,0.005-3.51
		c0.002-0.249-0.109-0.573,0.352-0.578C59.217,50.845,59.037,51.205,59.118,51.474z"/>
	<path fill="#FB7702" d="M7.156,31.533c0.172,0,0.345,0,0.517,0c5.227,0,10.454-0.002,15.681,0.006c0.192,0,0.495-0.133,0.561,0.125
		c0.075,0.292,0.055,0.626,0.001,0.928c-0.034,0.195-0.268,0.099-0.408,0.09c-2.665-0.169-5.33-0.346-7.995-0.518
		c-2.646-0.17-5.292-0.336-7.938-0.503c-0.133-0.008-0.267-0.013-0.4-0.019C7.168,31.606,7.162,31.57,7.156,31.533z"/>
	<path fill="#FB7702" d="M9.759,33.875c0.408,0,0.816,0,1.225,0c4.115,0,8.231,0.012,12.346-0.014
		c0.532-0.003,0.653,0.144,0.626,0.644c-0.043,0.787-0.009,0.771-0.769,0.7c-3.59-0.334-7.181-0.656-10.772-0.985
		c-0.889-0.081-1.778-0.17-2.667-0.255C9.751,33.935,9.755,33.905,9.759,33.875z"/>
	<path fill="#427DC2" d="M41.386,54.321c0.015,0.459,0.249,0.93-0.448,1.13c-0.904,0.259-1.57,0.111-1.895-0.526
		c-0.162-0.318-0.217-0.667-0.219-1.019c-0.008-1.793-0.011-3.585-0.011-5.378c0-0.331,0.817-0.773,1.09-0.585
		c0.171,0.117,0.087,0.322,0.088,0.486c0.009,1.578,0.009,3.157,0.012,4.735c0,0.175-0.006,0.352,0.011,0.526
		c0.069,0.721,0.34,0.901,1.057,0.708C41.164,54.372,41.258,54.352,41.386,54.321z"/>
	<path fill="#427DC2" d="M33.862,54.298c0.055,0.988,0.012,1.04-0.93,1.195c-0.722,0.119-1.32-0.236-1.478-0.909
		c-0.066-0.282-0.093-0.579-0.09-0.869c0.02-1.675,0.053-3.35,0.086-5.025c0.007-0.36,0.766-0.798,1.075-0.617
		c0.166,0.097,0.089,0.281,0.086,0.424c-0.027,1.597-0.063,3.194-0.095,4.791c-0.003,0.156-0.01,0.313,0.008,0.467
		c0.071,0.6,0.321,0.775,0.906,0.644C33.562,54.369,33.694,54.337,33.862,54.298z"/>
	<path fill="#427DC2" d="M31.673,42.894c1.012,0.006,1.759,0.765,1.753,1.781c-0.005,0.812-0.762,1.607-1.536,1.611
		c-1.058,0.006-1.85-0.679-1.854-1.605C30.03,43.601,30.683,42.888,31.673,42.894z"/>
	<path fill="#427DC2" d="M39.378,42.777c1.025-0.005,1.773,0.74,1.776,1.768c0.003,0.833-0.783,1.627-1.608,1.623
		c-1.012-0.004-1.787-0.712-1.782-1.629C37.77,43.479,38.409,42.782,39.378,42.777z"/>
	<path fill="#FB7703" d="M14.246,36.435c3.056,0.047,6.113,0.102,9.169,0.13c0.413,0.004,0.417,0.192,0.416,0.497
		c-0.003,0.795,0.008,0.789-0.741,0.704c-3.615-0.407-7.231-0.809-10.847-1.214c-0.01-0.132,0.077-0.157,0.179-0.155
		C13.03,36.413,13.64,36.348,14.246,36.435z"/>
	<path fill="#FB7703" d="M52.226,54.259c0.161,0.408,0.066,0.683-0.267,0.919c-1.074,0.76-2.487,0.293-2.848-0.972
		c-0.225-0.786-0.214-1.58,0.108-2.345c0.437-1.038,1.749-1.453,2.691-0.86c0.165,0.104,0.337,0.221,0.368,0.429
		c0.019,0.128,0.024,0.299-0.045,0.391c-0.12,0.161-0.235-0.02-0.34-0.078c-1.188-0.653-1.946-0.269-2.107,1.076
		c-0.021,0.173-0.045,0.353-0.022,0.523c0.072,0.54,0.108,1.116,0.696,1.388c0.595,0.276,1.094,0.038,1.552-0.348
		C52.066,54.336,52.138,54.309,52.226,54.259z"/>
	<path fill="#FB7B0C" d="M46.795,54.975c0.003-0.428,0.161-0.617,0.532-0.612c0.355,0.005,0.473,0.206,0.471,0.524
		c-0.002,0.348-0.148,0.547-0.525,0.537C46.921,55.415,46.803,55.211,46.795,54.975z"/>
	<path fill="#FC9942" d="M14.246,36.435c-0.662,0.128-1.347-0.118-2.003,0.118c-0.401-0.039-0.803-0.078-1.204-0.117
		C12.113,36.368,13.181,36.278,14.246,36.435z"/>
	<path fill="#427DC2" d="M30.35,50.098c-0.331-1.003-1.022-1.645-2.099-1.797c-1.032-0.146-1.853,0.298-2.685,1.08
		c0-1.347-0.022-2.553,0.01-3.758c0.014-0.517-0.215-0.634-0.665-0.629c-0.419,0.005-0.631,0.098-0.627,0.595
		c0.021,3.16,0.015,6.32,0.005,9.48c-0.001,0.372,0.065,0.595,0.499,0.593c0.389-0.002,0.658-0.072,0.61-0.547
		c-0.012-0.122-0.061-0.276,0.117-0.38c0.111,0.096,0.226,0.198,0.343,0.297c1.622,1.372,3.787,0.807,4.483-1.198
		C30.768,52.6,30.759,51.335,30.35,50.098z M28.962,53.768c-0.479,0.965-1.448,1.238-2.345,0.648
		c-0.671-0.441-1.213-0.962-1.06-1.89c0.056-0.341,0.009-0.699,0.009-1.049c0-0.968,0.642-1.814,1.582-2.086
		c0.744-0.215,1.437,0.09,1.803,0.808c0.3,0.587,0.332,1.23,0.37,1.847C29.303,52.659,29.226,53.236,28.962,53.768z"/>
	<path fill="#FB7702" d="M56.449,51.16c-0.165-0.129-0.363-0.236-0.563-0.297c-1.677-0.515-2.928,0.489-2.927,2.338
		c0.001,1.134,0.434,1.916,1.216,2.2c1.058,0.384,2.203,0.008,2.698-0.886C57.46,53.458,57.255,51.786,56.449,51.16z M54.948,54.835
		c-0.751-0.042-1.129-0.537-1.204-1.571c-0.082-1.137,0.486-1.861,1.432-1.824c0.81,0.031,1.226,0.619,1.219,1.719
		C56.388,54.311,55.889,54.888,54.948,54.835z"/>
</g>
</svg>
